# xmcd CD database file generated by OrangeCD 6.5
#
# Track frame offsets:
#	150
#	13200
#	24544
#	37386
#	51119
#	77909
#	91396
#	101168
#	120513
#	132002
#	151901
#	162517
#	175113
#	187257
#	200777
#
# Disc length: 2845 seconds
#
# Revision: 0
# Processed by: cddbd v1.5.2PL0 Copyright (c) Steve Scherf et al.
# Submitted via: OrangeCD 6.5
#
DISCID=d20b1b0f
DTITLE=Emmylou Harris - Gliding Bird
DYEAR=2017
DGENRE=Country Rock
TTITLE0=I'll Be Your Baby Tonight
TTITLE1=Fugue For The Ox
TTITLE2=I Saw The Light
TTITLE3=Clocks
TTITLE4=Black Gypsy
TTITLE5=Gliding Bird
TTITLE6=Everybody's Talkin'
TTITLE7=Bobbie's Gone
TTITLE8=I'll Never Fall In Love Again
TTITLE9=Waltz Of The Magic Man
TTITLE10=Paddy
TTITLE11=Clocks <Alternate Version>
TTITLE12=Fugue For The Ox
TTITLE13=Lady Of The Rose
TTITLE14={Emmylou Harris: 1966 Cellar Door Dick Cerri Radio Show}
EXTD=
EXTT0=
EXTT1=
EXTT2=
EXTT3=
EXTT4=
EXTT5=
EXTT6=
EXTT7=
EXTT8=
EXTT9=
EXTT10=
EXTT11=
EXTT12=
EXTT13=
EXTT14=
PLAYORDER=
